<svg xmlns="http://www.w3.org/2000/svg" xmlns:xlink="http://www.w3.org/1999/xlink" version="1.1" x="0px" y="0px" viewBox="0 0 100 125" enable-background="new 0 0 100 100" xml:space="preserve"><g><polyline fill="none" stroke="#000000" stroke-width="2" stroke-miterlimit="10" points="53.111,42.356 64.84,47.661 75.59,66.087    83.689,74.261  "/><polyline fill="none" stroke="#000000" stroke-width="2" stroke-miterlimit="10" points="51.291,47.261 64.865,58.212    62.127,71.536 73.594,93.237  "/><rect x="46.09" y="25.362" fill="#000000" stroke="#000000" stroke-width="2" stroke-miterlimit="10" width="8.099" height="8.1"/><polyline fill="#000000" stroke="#000000" stroke-width="2" stroke-miterlimit="10" points="50.14,25.362 50.14,11.962    50.14,9.262  "/><polygon fill="#000000" stroke="#000000" stroke-width="2" stroke-miterlimit="10" points="47.359,36.462 52.559,36.462    54.26,39.144 51.359,47.261 48.697,47.261 45.922,39.161  "/><polygon fill="#000000" stroke="#000000" stroke-width="2" stroke-miterlimit="10" points="48.833,47.261 51.359,47.261    52.633,55.372 51.426,71.536 48.726,71.536 47.549,55.37  "/><polyline fill="none" stroke="#000000" stroke-width="2" stroke-miterlimit="10" points="53.287,41.862 64.791,39.087    66.291,22.962 75.59,6.763  "/><polyline fill="none" stroke="#000000" stroke-width="2" stroke-miterlimit="10" points="46.991,42.026 35.488,39.253    33.988,23.128 24.688,6.927  "/><path fill="#000000" stroke="#000000" stroke-width="2" stroke-miterlimit="10" d="M53.111,42.356"/><polyline fill="none" stroke="#000000" stroke-width="2" stroke-miterlimit="10" points="48.86,47.261 35.285,58.212    38.022,71.536 26.557,93.237  "/><polygon fill="#000000" stroke="#000000" stroke-width="2" stroke-miterlimit="10" points="52.32,47.767 52.994,50.513    74.879,48.724 77.293,43.44  "/><path fill="#000000" stroke="#000000" stroke-width="2" stroke-miterlimit="10" d="M53.111,42.356"/><polyline fill="none" stroke="#000000" stroke-width="2" stroke-miterlimit="10" points="47.077,42.304 35.348,47.608    24.598,66.034 16.498,74.21  "/><polygon fill="#000000" stroke="#000000" stroke-width="2" stroke-miterlimit="10" points="47.777,47.747 47.178,50.505    25.293,48.718 22.803,43.419  "/></g><text x="0" y="115" fill="#000000" font-size="5px" font-weight="bold" font-family="'Helvetica Neue', Helvetica, Arial-Unicode, Arial, Sans-serif">Created by Kunyapat Ch.</text><text x="0" y="120" fill="#000000" font-size="5px" font-weight="bold" font-family="'Helvetica Neue', Helvetica, Arial-Unicode, Arial, Sans-serif">from the Noun Project</text></svg>